<?xml version="1.0" encoding="utf-8"?>
<!-- Generator: Adobe Illustrator 27.8.1, SVG Export Plug-In . SVG Version: 6.00 Build 0)  -->
<svg version="1.1" id="Layer_1" xmlns="http://www.w3.org/2000/svg" xmlns:xlink="http://www.w3.org/1999/xlink" x="0px" y="0px"
	 viewBox="0 0 800 200" style="enable-background:new 0 0 800 200;" xml:space="preserve">
<style type="text/css">
	.st0{fill:#314E73;}
	.st1{fill:#F36F41;}
</style>
<path class="st0" d="M206.87,170.05c-8.8,0-16.41-1.9-22.85-5.71s-11.38-9.18-14.84-16.13s-5.19-15.06-5.19-24.34
	c0-9.23,1.7-17.35,5.11-24.38s8.21-12.51,14.4-16.45c6.19-3.94,13.47-5.91,21.84-5.91c5.09,0,10.03,0.83,14.8,2.5
	c4.77,1.66,9.06,4.29,12.87,7.88s6.83,8.26,9.05,14s3.34,12.66,3.34,20.76v6.27h-71.53v-13.11h62.51l-8.12,4.34
	c0-5.52-0.86-10.4-2.58-14.64c-1.72-4.24-4.28-7.55-7.68-9.94c-3.41-2.39-7.63-3.58-12.67-3.58s-9.35,1.21-12.91,3.62
	c-3.57,2.42-6.29,5.61-8.17,9.58s-2.81,8.31-2.81,13.03v8.93c0,6.17,1.07,11.4,3.22,15.69c2.14,4.29,5.14,7.56,8.97,9.81
	s8.3,3.38,13.4,3.38c3.33,0,6.34-0.48,9.05-1.45s5.05-2.41,7.04-4.35c1.98-1.93,3.49-4.32,4.51-7.16l16.57,3.14
	c-1.34,4.83-3.7,9.07-7.08,12.71c-3.38,3.65-7.63,6.48-12.75,8.49S213.41,170.05,206.87,170.05z"/>
<path class="st1" d="M300.22,170.32c-3.27,0-6.05-1.13-8.33-3.38s-3.42-5.01-3.42-8.29c0-3.27,1.14-6.03,3.42-8.29
	c2.28-2.25,5.06-3.38,8.33-3.38s6.05,1.13,8.33,3.38s3.42,5.02,3.42,8.29c0,3.27-1.14,6.03-3.42,8.29
	C306.27,169.19,303.49,170.32,300.22,170.32z"/>
<g>
	<path class="st1" d="M49.38,141.49c-1.38-1.36-2.89-2.44-4.53-3.22c-1.69-0.81-2.7-2.59-2.7-4.46V71.36c0-0.71-0.15-1.41-0.44-2.06
		l-0.6-1.35c-2.22-4.98-9.66-3.39-9.66,2.06v64.29c0,1.86-0.9,3.66-2.51,4.59c-1.21,0.7-2.34,1.57-3.4,2.61
		c-3.26,3.23-4.89,7.18-4.89,11.86s1.63,8.64,4.89,11.86c3.26,3.23,7.24,4.84,11.92,4.84s8.65-1.61,11.92-4.84
		c3.26-3.22,4.89-7.18,4.89-11.86S52.64,144.72,49.38,141.49z"/>
	<path class="st0" d="M148.88,131.87c-2.29-2.26-4.83-3.92-7.64-4.98c-2.05-0.78-3.49-2.65-3.49-4.84V66.22c0-1.87,1-3.63,2.67-4.48
		c1.52-0.77,2.93-1.8,4.22-3.08c3.26-3.22,4.89-7.18,4.89-11.86s-1.63-8.64-4.89-11.86s-7.24-4.84-11.92-4.84s-8.65,1.61-11.92,4.84
		c-3.26,3.23-4.89,7.18-4.89,11.86s1.63,8.64,4.89,11.86c1.11,1.1,2.31,2,3.59,2.72c1.59,0.9,2.66,2.49,2.66,4.32v56.82
		c0,2-1.15,3.87-3,4.65c-0.22,0.09-0.44,0.19-0.66,0.29c-1.99,0.92-4.34,0.45-5.83-1.15L59.78,64.55c-1.3-1.39-1.66-3.37-1.08-5.18
		c0.7-2.18,1.06-4.51,1.06-7c0-6.24-2.17-11.51-6.52-15.81c-4.35-4.3-9.65-6.45-15.89-6.45s-11.54,2.15-15.89,6.45
		c-4.35,4.3-6.52,9.57-6.52,15.81s2.17,11.51,6.52,15.81s9.65,6.45,15.89,6.45c3.13,0,6.02-0.55,8.67-1.64
		c1.93-0.79,4.13-0.43,5.55,1.09l58.6,62.71c1.21,1.3,1.63,3.12,1.18,4.84c-0.51,1.91-0.76,3.93-0.76,6.06
		c0,6.24,2.17,11.51,6.52,15.81s9.65,6.45,15.89,6.45c6.24,0,11.54-2.15,15.89-6.45c4.35-4.3,6.52-9.57,6.52-15.81
		C155.4,141.45,153.22,136.17,148.88,131.87z"/>
</g>
<path class="st0" d="M363.58,169.81c-10.3,0-19.52-2.47-27.68-7.4s-14.56-12-19.23-21.2s-7-20.15-7-32.86
	c0-12.82,2.35-23.83,7.04-33.03s11.1-16.26,19.23-21.2s17.34-7.4,27.64-7.4c6.33,0,12.27,0.91,17.82,2.74
	c5.55,1.82,10.53,4.48,14.93,7.96c4.4,3.49,8.03,7.75,10.9,12.79s4.79,10.75,5.75,17.14H394.8c-0.7-3.92-2-7.36-3.9-10.34
	c-1.91-2.98-4.24-5.5-7-7.56s-5.85-3.62-9.25-4.67c-3.41-1.05-7.01-1.57-10.82-1.57c-6.87,0-13.05,1.73-18.54,5.19
	c-5.5,3.46-9.81,8.56-12.95,15.29s-4.71,14.95-4.71,24.66c0,9.76,1.58,17.98,4.75,24.66s7.48,11.73,12.95,15.17
	s11.61,5.15,18.42,5.15c3.81,0,7.4-0.51,10.78-1.53s6.46-2.55,9.25-4.59s5.14-4.52,7.04-7.44s3.23-6.32,3.98-10.18h18.18
	c-0.91,5.95-2.76,11.38-5.55,16.29c-2.79,4.91-6.35,9.15-10.7,12.71c-4.34,3.57-9.31,6.33-14.89,8.29
	C376.26,168.83,370.17,169.81,363.58,169.81z"/>
<path class="st0" d="M426.49,168.2V78.25h16.82v14.4h0.97c1.66-4.83,4.57-8.65,8.73-11.47s8.86-4.22,14.12-4.22
	c1.07,0,2.35,0.04,3.82,0.12s2.67,0.17,3.58,0.28V94.1c-0.7-0.21-1.95-0.43-3.74-0.64c-1.8-0.21-3.61-0.32-5.43-0.32
	c-4.13,0-7.82,0.87-11.06,2.61c-3.25,1.74-5.79,4.13-7.64,7.16s-2.78,6.53-2.78,10.5v54.79L426.49,168.2L426.49,168.2z"/>
<path class="st0" d="M518.38,170.05c-8.8,0-16.41-1.9-22.85-5.71s-11.38-9.18-14.84-16.13s-5.19-15.06-5.19-24.34
	c0-9.23,1.7-17.35,5.11-24.38c3.41-7.03,8.21-12.51,14.4-16.45s13.47-5.91,21.84-5.91c5.09,0,10.03,0.83,14.8,2.5
	c4.77,1.66,9.06,4.29,12.87,7.88s6.83,8.26,9.05,14s3.34,12.66,3.34,20.76v6.27h-71.53v-13.11h62.51l-8.12,4.34
	c0-5.52-0.86-10.4-2.58-14.64c-1.72-4.24-4.28-7.55-7.68-9.94c-3.41-2.39-7.63-3.58-12.67-3.58c-5.04,0-9.35,1.21-12.91,3.62
	c-3.57,2.42-6.29,5.61-8.17,9.58s-2.81,8.31-2.81,13.03v8.93c0,6.17,1.07,11.4,3.22,15.69c2.14,4.29,5.14,7.56,8.97,9.81
	s8.3,3.38,13.4,3.38c3.33,0,6.34-0.48,9.05-1.45c2.71-0.97,5.05-2.41,7.04-4.35c1.98-1.93,3.49-4.32,4.51-7.16l16.57,3.14
	c-1.34,4.83-3.7,9.07-7.08,12.71c-3.38,3.65-7.63,6.48-12.75,8.49S524.92,170.05,518.38,170.05z"/>
<path class="st0" d="M595.21,170.13c-5.68,0-10.83-1.06-15.45-3.18c-4.61-2.12-8.26-5.22-10.94-9.29
	c-2.68-4.08-4.02-9.04-4.02-14.89c0-5.09,0.98-9.27,2.94-12.51c1.96-3.24,4.6-5.83,7.92-7.77c3.33-1.93,7.03-3.38,11.1-4.34
	c4.08-0.97,8.26-1.72,12.55-2.25c5.42-0.59,9.79-1.1,13.12-1.53s5.75-1.11,7.28-2.05s2.29-2.46,2.29-4.55v-0.4
	c0-5.09-1.44-9.04-4.3-11.83c-2.87-2.79-7.12-4.18-12.75-4.18c-5.85,0-10.47,1.27-13.88,3.82c-3.41,2.55-5.75,5.43-7.04,8.65
	l-16.49-3.78c1.98-5.47,4.87-9.88,8.65-13.23s8.13-5.81,13.03-7.36c4.91-1.56,10.04-2.33,15.41-2.33c3.59,0,7.4,0.42,11.42,1.25
	c4.02,0.83,7.82,2.36,11.38,4.59c3.57,2.22,6.48,5.4,8.73,9.53s3.38,9.47,3.38,16.01v59.7H622.4V155.9h-0.64
	c-1.07,2.2-2.75,4.4-5.03,6.6s-5.19,4.02-8.73,5.47C604.46,169.4,600.2,170.13,595.21,170.13z M598.99,156.13
	c4.88,0,9.04-0.95,12.47-2.86c3.43-1.9,6.06-4.41,7.88-7.52s2.74-6.41,2.74-9.9v-11.66c-0.64,0.59-1.85,1.15-3.62,1.69
	s-3.78,0.99-6.03,1.37s-4.45,0.71-6.6,1.01c-2.15,0.3-3.94,0.52-5.39,0.68c-3.38,0.48-6.46,1.22-9.25,2.21s-5.03,2.44-6.72,4.35
	c-1.69,1.9-2.54,4.41-2.54,7.52c0,4.34,1.61,7.62,4.83,9.81C589.98,155.03,594.06,156.13,598.99,156.13z"/>
<path class="st0" d="M784.64,122.26c0-8.1-1.11-15.02-3.34-20.76c-2.23-5.74-5.24-10.4-9.05-14c-3.81-3.59-8.1-6.22-12.87-7.88
	c-4.78-1.66-9.71-2.5-14.8-2.5c-8.37,0-15.65,1.97-21.84,5.91c-6.2,3.94-11,9.43-14.4,16.45s-5.11,15.15-5.11,24.38
	c0,9.28,1.73,17.39,5.19,24.34c3.46,6.95,8.41,12.32,14.84,16.13c6.44,3.81,14.05,5.71,22.85,5.71c6.54,0,12.38-1,17.5-3.02
	c5.12-2.01,9.37-4.84,12.75-8.49s5.74-7.88,7.08-12.71l-16.57-3.14c-1.02,2.84-2.52,5.23-4.51,7.16c-1.98,1.93-4.33,3.38-7.04,4.35
	c-2.71,0.96-5.73,1.45-9.05,1.45c-5.09,0-9.56-1.13-13.4-3.38c-3.83-2.25-6.83-5.53-8.97-9.81c-1.93-3.87-2.95-8.53-3.14-13.92
	h63.88V122.26z M723.49,104.8c1.88-3.97,4.6-7.16,8.17-9.58c3.57-2.41,7.87-3.62,12.91-3.62s9.27,1.19,12.67,3.58
	c3.41,2.39,5.97,5.7,7.68,9.94c1.25,3.09,2.03,6.53,2.37,10.3h-46.5C721.07,111.63,721.94,108.08,723.49,104.8z"/>
<path class="st0" d="M694.29,153.07c-1.07,0.21-2.13,0.37-3.18,0.48c-1.04,0.11-2.02,0.16-2.94,0.16c-3.81,0-6.57-0.95-8.29-2.86
	c-1.72-1.9-2.57-4.92-2.57-9.05V92.32h18.5V78.24h-18.5v-21.4h-7.9l-0.01,0.01c0.01,0.32,0.05,0.64,0.05,0.96
	c0,13.54-9.79,24.78-22.67,27.08l-0.04,0.05v7.37h13.12v53.02c0,7.29,2.33,13.13,7,17.5s10.89,6.56,18.67,6.56
	c2.09,0,4.18-0.16,6.28-0.48c2.09-0.32,4.02-0.78,5.79-1.37L694.29,153.07z"/>
<path class="st0" d="M283.88,158.65c0-2.34,0.44-4.5,1.28-6.48c-0.61-0.37-1.17-0.81-1.63-1.32c-1.72-1.9-2.57-4.92-2.57-9.05V92.32
	h18.5V78.24h-18.5v-21.4h-7.9l-0.01,0.01c0.01,0.32,0.05,0.64,0.05,0.96c0,13.54-9.79,24.78-22.67,27.08l-0.04,0.05v7.37h13.12
	v53.02c0,7.29,2.33,13.13,7,17.5c4.4,4.12,10.21,6.28,17.38,6.51C285.24,166.38,283.88,162.79,283.88,158.65z"/>
</svg>
