<svg xmlns="http://www.w3.org/2000/svg" viewBox="0 0 316.73 90.51"><defs><style>.cls-1{fill:#b9e5fb;}.cls-1,.cls-4,.cls-6{stroke:#00aeef;stroke-miterlimit:10;}.cls-2{fill:#231f20;}.cls-3,.cls-6{fill:#00aeef;}.cls-4{fill:none;}.cls-5{fill:#fff;}</style></defs><title>Asset 1</title><g id="Layer_2" data-name="Layer 2"><g id="Layer_3" data-name="Layer 3"><circle class="cls-1" cx="61.98" cy="52.51" r="19.49"/><circle class="cls-1" cx="278.74" cy="52.51" r="37.5"/></g><g id="NetCreate_copy" data-name="NetCreate copy"><path class="cls-2" d="M0,67V19.21L32.62,53.35V22.26h6.76V69.72l-32.63-34V67Z"/><path class="cls-2" d="M75.22,54.42H55A8.6,8.6,0,0,0,57.25,60a6.91,6.91,0,0,0,5.13,2,6.7,6.7,0,0,0,4-1.16A16.4,16.4,0,0,0,70,56.53l5.51,3.07a22,22,0,0,1-2.7,3.73,14.41,14.41,0,0,1-3,2.55,12.35,12.35,0,0,1-3.51,1.46,16.93,16.93,0,0,1-4.08.46,13.29,13.29,0,0,1-10.14-4q-3.82-4.09-3.83-10.84t3.71-10.83A12.77,12.77,0,0,1,61.8,38q6.23,0,9.85,4t3.6,10.92Zm-6.7-5.33c-.9-3.48-3.1-5.22-6.57-5.22a6.73,6.73,0,0,0-2.23.36,6.41,6.41,0,0,0-1.9,1.05,6.75,6.75,0,0,0-1.47,1.63,7.78,7.78,0,0,0-.92,2.18Z"/><path class="cls-2" d="M89.59,44.86V67H83.07V44.86H80.29V38.77h2.78V28.43h6.52V38.77h5.07v6.09Z"/><path class="cls-2" d="M151.71,24.66v8q-5.85-4.9-12.11-4.9a15.4,15.4,0,0,0-11.62,5,16.68,16.68,0,0,0-4.75,12.05A16.31,16.31,0,0,0,128,56.65a15.72,15.72,0,0,0,11.65,4.84,14.32,14.32,0,0,0,6.05-1.16,17.22,17.22,0,0,0,2.88-1.57,31.62,31.62,0,0,0,3.15-2.37v8.14a24.4,24.4,0,0,1-12.17,3.27,22.46,22.46,0,0,1-16.37-6.69,22.19,22.19,0,0,1-6.75-16.28,23,23,0,0,1,5.65-15.24,22.47,22.47,0,0,1,18-8.2A22.87,22.87,0,0,1,151.71,24.66Z"/><path class="cls-2" d="M159,38.77h6.52v2.52a12.72,12.72,0,0,1,3.19-2.58,7.31,7.31,0,0,1,3.36-.72,10.55,10.55,0,0,1,5.39,1.68l-3,6a6.19,6.19,0,0,0-3.62-1.33q-5.33,0-5.33,8V67H159Z"/><path class="cls-2" d="M206.47,54.42H186.25A8.49,8.49,0,0,0,188.51,60a6.89,6.89,0,0,0,5.12,2,6.68,6.68,0,0,0,4-1.16,16.4,16.4,0,0,0,3.57-4.29l5.5,3.07A22.55,22.55,0,0,1,204,63.33a14.46,14.46,0,0,1-3,2.55,12.41,12.41,0,0,1-3.5,1.46,17.08,17.08,0,0,1-4.09.46,13.29,13.29,0,0,1-10.14-4q-3.82-4.09-3.82-10.84t3.71-10.83A12.76,12.76,0,0,1,193.06,38q6.23,0,9.85,4t3.59,10.92Zm-6.69-5.33q-1.36-5.22-6.58-5.22a6.77,6.77,0,0,0-2.23.36,6.41,6.41,0,0,0-1.9,1.05,6.52,6.52,0,0,0-1.46,1.63,7.51,7.51,0,0,0-.93,2.18Z"/><path class="cls-2" d="M234.4,38.77H241V67H234.4V64a12.53,12.53,0,0,1-18.34-.47,15.71,15.71,0,0,1-3.79-10.77,15.26,15.26,0,0,1,3.79-10.58,12.24,12.24,0,0,1,9.5-4.23,12,12,0,0,1,8.84,4.06Zm-15.47,14a9.81,9.81,0,0,0,2.17,6.6A7.12,7.12,0,0,0,226.72,62a7.5,7.5,0,0,0,5.86-2.49,9.69,9.69,0,0,0,2.23-6.55,9.69,9.69,0,0,0-2.23-6.55,7.39,7.39,0,0,0-5.8-2.52,7.21,7.21,0,0,0-5.62,2.55A9.4,9.4,0,0,0,218.93,52.8Z"/><path class="cls-2" d="M255.9,44.86V67h-6.52V44.86H246.6V38.77h2.78V28.43h6.52V38.77H261v6.09Z"/><path class="cls-2" d="M291.63,54.42H271.4A8.6,8.6,0,0,0,273.66,60a6.89,6.89,0,0,0,5.13,2,6.72,6.72,0,0,0,4-1.16,16.4,16.4,0,0,0,3.56-4.29l5.51,3.07a22,22,0,0,1-2.7,3.73,14.66,14.66,0,0,1-3,2.55,12.35,12.35,0,0,1-3.51,1.46,16.93,16.93,0,0,1-4.08.46,13.29,13.29,0,0,1-10.14-4q-3.82-4.09-3.83-10.84t3.71-10.83A12.77,12.77,0,0,1,278.21,38q6.23,0,9.85,4t3.59,10.92Zm-6.7-5.33q-1.37-5.22-6.58-5.22a6.81,6.81,0,0,0-2.23.36,6.49,6.49,0,0,0-1.89,1.05,6.75,6.75,0,0,0-1.47,1.63,7.78,7.78,0,0,0-.92,2.18Z"/></g><g id="Layer_4" data-name="Layer 4"><polygon class="cls-3" points="245.24 69.37 72.15 69.37 76.63 65.37 243.5 65.37 245.24 69.37"/><path class="cls-4" d="M61.77,32.79C82.29,13.58,122.8.5,169.41.5c35.66,0,67.74,7.65,90,19.85"/></g><g id="Layer_5" data-name="Layer 5"><polygon class="cls-5" points="243.15 65.87 76.9 65.87 77.68 64.87 242.8 64.87 243.15 65.87"/><circle class="cls-6" cx="105.63" cy="67.37" r="4.87"/></g></g></svg>