<?xml version="1.0" encoding="utf-8"?>
<!-- Generator: Adobe Illustrator 27.8.1, SVG Export Plug-In . SVG Version: 6.00 Build 0)  -->
<svg version="1.1" id="Layer_1" xmlns="http://www.w3.org/2000/svg" xmlns:xlink="http://www.w3.org/1999/xlink" x="0px" y="0px"
	 viewBox="0 0 200 200" style="enable-background:new 0 0 200 200;" xml:space="preserve">
<style type="text/css">
	.st0{fill:#F36E40;}
	.st1{fill:#304D72;}
</style>
<g>
	<path class="st0" d="M52.3,156.56c-1.88-1.85-3.93-3.31-6.15-4.37c-2.3-1.1-3.67-3.51-3.67-6.06V61.37c0-0.96-0.2-1.91-0.59-2.79
		l-0.82-1.83c-3.01-6.75-13.11-4.6-13.11,2.79v87.24c0,2.52-1.23,4.96-3.41,6.23c-1.64,0.95-3.17,2.13-4.61,3.54
		c-4.43,4.38-6.64,9.74-6.64,16.1s2.21,11.72,6.64,16.09c4.43,4.38,9.82,6.56,16.17,6.56s11.75-2.19,16.17-6.56
		c4.42-4.37,6.64-9.74,6.64-16.09S56.73,160.93,52.3,156.56z"/>
	<path class="st1" d="M187.34,143.5c-3.1-3.06-6.56-5.31-10.37-6.76c-2.79-1.06-4.74-3.59-4.74-6.57V54.4
		c0-2.54,1.36-4.93,3.62-6.08c2.06-1.05,3.97-2.44,5.73-4.17c4.42-4.37,6.64-9.74,6.64-16.09s-2.21-11.72-6.64-16.1
		c-4.43-4.37-9.82-6.56-16.17-6.56s-11.75,2.19-16.17,6.56c-4.43,4.38-6.64,9.74-6.64,16.1s2.21,11.72,6.64,16.09
		c1.51,1.49,3.13,2.72,4.87,3.69c2.16,1.22,3.62,3.39,3.62,5.87v77.12c0,2.72-1.57,5.25-4.07,6.3c-0.3,0.13-0.6,0.26-0.9,0.4
		c-2.7,1.25-5.88,0.61-7.91-1.56L66.42,52.14c-1.76-1.89-2.26-4.57-1.47-7.03c0.95-2.96,1.44-6.12,1.44-9.51
		c0-8.47-2.95-15.63-8.85-21.46C51.63,8.32,44.44,5.4,35.97,5.4S20.31,8.32,14.4,14.15C8.5,19.99,5.56,27.14,5.56,35.61
		S8.5,51.24,14.4,57.07c5.91,5.84,13.09,8.75,21.57,8.75c4.25,0,8.17-0.75,11.77-2.23c2.62-1.07,5.6-0.58,7.53,1.48l79.52,85.1
		c1.65,1.76,2.22,4.23,1.6,6.56c-0.69,2.59-1.04,5.33-1.04,8.22c0,8.47,2.94,15.63,8.85,21.46c5.91,5.84,13.09,8.75,21.57,8.75
		c8.47,0,15.66-2.91,21.57-8.75c5.9-5.83,8.85-12.98,8.85-21.46S193.24,149.34,187.34,143.5z"/>
</g>
</svg>
